<svg width="562" height="376" viewBox="0 0 562 376" fill="none" xmlns="http://www.w3.org/2000/svg">
<g clip-path="url(#clip0_8_209)">
<path d="M247.102 126.686H0.178334C-2.01314 155.584 15.9066 181.2 32.4947 181.2H249.723C246.662 162.756 244.774 144.994 247.102 126.686Z" fill="white"/>
<path d="M561.395 126.686H308.568C306.24 144.994 308.128 162.756 311.19 181.2H529.079C547.492 181.2 562.863 153.948 561.395 126.686Z" fill="white"/>
<path d="M12.4986 136.406C10.8524 158.111 33.0922 177.342 45.549 177.342H230.147C233.565 163.344 230.744 149.377 233.146 136.406H12.4986Z" fill="#020747"/>
<path d="M550.637 136.406H332.244C329.843 149.387 332.664 163.344 329.246 177.342H517.587C531.417 177.342 551.738 156.874 550.637 136.406Z" fill="#020747"/>
<path d="M237.046 181.2H30.5442C30.5442 207.571 48.1075 230.944 62.8606 230.944H238.158C239.206 214.366 239.909 197.778 237.046 181.2Z" fill="white"/>
<path d="M322.294 181.2C325.156 197.778 324.454 214.356 323.405 230.944H498.356C513.109 230.944 532.864 206.072 530.673 181.2H322.294Z" fill="white"/>
<path d="M216.484 185.227H43.3995C43.3995 207.33 58.1212 225.46 70.4837 225.46H217.417C218.298 211.556 218.885 199.131 216.484 185.227Z" fill="#020747"/>
<path d="M344.345 185.227C346.735 199.131 346.148 211.556 345.278 225.46H491.918C504.291 225.46 520.847 206.072 519.002 185.227H344.345Z" fill="#020747"/>
<path d="M220.804 230.944H58.2053C56.5171 262.054 83.0245 288.006 98.8787 288.006H221.916C222.964 268.985 223.667 249.964 220.804 230.944Z" fill="white"/>
<path d="M339.123 230.944C341.985 249.964 341.283 268.985 340.234 288.006H462.915C480.52 288.006 505.79 259.475 503.588 230.944H339.112H339.123Z" fill="white"/>
<path d="M212.888 237.529H69.8232C68.6173 259.863 89.1061 278.496 100.483 278.496H213.685C214.44 264.843 214.943 251.191 212.888 237.529Z" fill="#020747"/>
<path d="M347.585 237.529C349.64 251.181 349.137 264.833 348.382 278.496H461.332C473.967 278.496 493.575 258.017 492.002 237.529H347.585Z" fill="#020747"/>
<path d="M281.526 375.466C281.526 375.466 212.017 350.951 172.864 244.491C146.955 174.018 152.743 102.538 152.743 102.538C152.743 102.538 195.912 106.564 230.304 91.1926C264.697 75.8313 281.526 54.9756 281.526 54.9756C281.526 54.9756 298.355 75.8313 332.748 91.1926C367.14 106.554 410.309 102.538 410.309 102.538C410.309 102.538 416.097 174.018 390.187 244.491C351.045 350.951 281.526 375.466 281.526 375.466Z" fill="white"/>
<path d="M399.006 112.615C399.006 112.615 359.622 116.305 328.249 102.223C296.877 88.1413 281.526 69.0367 281.526 69.0367C281.526 69.0367 266.175 88.1413 234.802 102.223C203.43 116.305 164.046 112.615 164.046 112.615C164.046 112.615 158.761 179.565 182.406 244.134C218.12 341.671 281.536 362.673 281.536 362.673C281.536 362.673 344.953 341.681 380.667 244.134C404.311 179.565 399.027 112.615 399.027 112.615H399.006ZM364.97 238.2C334.908 320.312 281.515 342.384 281.515 342.384C281.515 342.384 228.123 320.322 198.061 238.2C178.16 183.843 182.605 128.94 182.605 128.94C182.605 128.94 215.761 132.044 242.174 120.196C268.587 108.347 281.515 92.2621 281.515 92.2621C281.515 92.2621 294.444 108.347 320.857 120.196C347.27 132.044 380.425 128.94 380.425 128.94C380.425 128.94 384.871 183.843 364.97 238.2Z" fill="#020747"/>
<path d="M279.607 231.688C279.083 232.915 256.927 285.102 256.927 285.102C256.927 285.102 230.954 264.613 218.875 225.837C206.806 187.051 214.481 150.1 214.481 150.1L229.486 151.568C229.486 151.568 225.785 176.209 230.587 200.232C238.273 238.651 253.267 246.326 253.267 246.326L280.572 185.961L307.876 246.326C307.876 246.326 322.881 238.64 330.556 200.232C335.359 176.22 331.657 151.568 331.657 151.568L346.651 150.1C346.651 150.1 354.337 187.051 342.258 225.837C330.189 264.613 304.206 285.102 304.206 285.102C304.206 285.102 281.893 232.642 281.526 231.688C281.159 230.724 280.131 230.461 279.607 231.688Z" fill="#FF0806" stroke="#020856" stroke-width="1.04855" stroke-miterlimit="10"/>
<path d="M137.654 73.7447C137.329 73.7447 137.004 73.6398 136.731 73.4406C136.175 73.0422 135.945 72.3291 136.165 71.679L141.198 56.1814L128.018 46.6081C127.462 46.2097 127.231 45.4967 127.451 44.8466C127.661 44.1965 128.269 43.7561 128.951 43.7561H145.245L150.278 28.2585C150.488 27.6084 151.096 27.168 151.778 27.168C152.459 27.168 153.067 27.6084 153.277 28.2585L158.31 43.7561H174.605C175.286 43.7561 175.894 44.1965 176.104 44.8466C176.314 45.4967 176.083 46.1992 175.538 46.6081L162.358 56.1814L167.391 71.679C167.6 72.3291 167.37 73.0317 166.825 73.4406C166.552 73.6398 166.227 73.7447 165.902 73.7447C165.577 73.7447 165.252 73.6398 164.979 73.4406L151.799 63.8673L138.618 73.4406C138.346 73.6398 138.021 73.7447 137.696 73.7447H137.654Z" fill="#020747"/>
<path d="M151.757 28.7513L157.147 45.3395H174.584L160.47 55.5943L165.86 72.1824L151.757 61.9276L137.644 72.1824L143.033 55.5943L128.92 45.3395H146.357L151.747 28.7513M151.736 25.6057C150.373 25.6057 149.167 26.4865 148.748 27.7762L144.061 42.1833H128.909C127.546 42.1833 126.34 43.0641 125.921 44.3538C125.501 45.654 125.963 47.0696 127.064 47.8665L139.321 56.7687L134.634 71.1758C134.215 72.476 134.676 73.8915 135.777 74.6884C136.333 75.0869 136.972 75.2861 137.623 75.2861C138.273 75.2861 138.923 75.0869 139.468 74.6884L151.726 65.7862L163.983 74.6884C164.539 75.0869 165.178 75.2861 165.829 75.2861C166.479 75.2861 167.129 75.0869 167.674 74.6884C168.775 73.8915 169.236 72.4655 168.817 71.1758L164.13 56.7687L176.335 47.8979C177.153 47.3317 177.688 46.388 177.688 45.308C177.688 43.5674 176.283 42.1623 174.542 42.1623H159.38L154.693 27.7552C154.274 26.455 153.068 25.5847 151.705 25.5847L151.736 25.6057Z" fill="white"/>
<path d="M229.832 57.6494C229.507 57.6494 229.182 57.5445 228.909 57.3453L215.729 47.772L202.549 57.3453C202.276 57.5445 201.951 57.6494 201.626 57.6494C201.301 57.6494 200.976 57.5445 200.703 57.3453C200.147 56.9469 199.917 56.2339 200.137 55.5837L205.17 40.0861L191.99 30.5129C191.434 30.1144 191.203 29.4014 191.424 28.7513C191.633 28.1012 192.241 27.6608 192.923 27.6608H209.217L214.251 12.1632C214.46 11.5131 215.068 11.0727 215.75 11.0727C216.432 11.0727 217.04 11.5131 217.249 12.1632L222.282 27.6608H238.577C239.258 27.6608 239.867 28.1012 240.076 28.7513C240.286 29.4014 240.055 30.1039 239.51 30.5129L226.33 40.0861L231.363 55.5837C231.573 56.2339 231.342 56.9364 230.797 57.3453C230.524 57.5445 230.199 57.6494 229.874 57.6494H229.832Z" fill="#020747"/>
<path d="M215.729 12.656L221.119 29.2441H238.556L224.453 39.499L229.843 56.0871L215.729 45.8322L201.626 56.0871L207.016 39.499L192.902 29.2441H210.34L215.729 12.656ZM215.719 9.51035C214.356 9.51035 213.15 10.3911 212.73 11.6809L208.043 26.088H192.892C191.529 26.088 190.323 26.9688 189.903 28.2585C189.484 29.5587 189.945 30.9742 191.046 31.7711L203.304 40.6733L198.617 55.0804C198.197 56.3807 198.659 57.7962 199.76 58.5931C200.315 58.9916 200.955 59.1908 201.605 59.1908C202.255 59.1908 202.905 58.9916 203.451 58.5931L215.708 49.6909L227.966 58.5931C228.522 58.9916 229.161 59.1908 229.811 59.1908C230.461 59.1908 231.111 58.9916 231.657 58.5931C232.758 57.7962 233.219 56.3702 232.8 55.0804L228.113 40.6733L240.318 31.8026C241.136 31.2364 241.67 30.2927 241.67 29.2127C241.67 27.4721 240.265 26.067 238.525 26.067H223.363L218.676 11.6599C218.256 10.3597 217.05 9.48938 215.687 9.48938L215.719 9.51035Z" fill="white"/>
<path d="M421.739 73.7447C421.413 73.7447 421.088 73.6399 420.816 73.4407L407.635 63.8674L394.455 73.4407C394.183 73.6399 393.858 73.7447 393.532 73.7447C393.207 73.7447 392.882 73.6399 392.61 73.4407C392.054 73.0422 391.823 72.3292 392.044 71.6791L397.077 56.1815L383.896 46.6082C383.341 46.2097 383.11 45.4967 383.33 44.8466C383.54 44.1965 384.148 43.7561 384.829 43.7561H401.124L406.157 28.2585C406.367 27.6084 406.975 27.168 407.656 27.168C408.338 27.168 408.946 27.6084 409.156 28.2585L414.189 43.7561H430.483C431.165 43.7561 431.773 44.1965 431.983 44.8466C432.193 45.4967 431.962 46.1993 431.417 46.6082L418.236 56.1815L423.269 71.6791C423.479 72.3292 423.248 73.0317 422.703 73.4407C422.431 73.6399 422.106 73.7447 421.78 73.7447H421.739Z" fill="#020747"/>
<path d="M407.625 28.7513L413.014 45.3394H430.452L416.338 55.5943L421.728 72.1824L407.614 61.9275L393.501 72.1824L398.89 55.5943L384.777 45.3394H402.214L407.604 28.7513M407.604 25.6057C406.241 25.6057 405.035 26.4864 404.615 27.7762L399.928 42.1833H384.777C383.414 42.1833 382.208 43.0641 381.788 44.3538C381.369 45.654 381.83 47.0695 382.931 47.8664L395.189 56.7686L390.502 71.1757C390.083 72.476 390.544 73.8915 391.645 74.6884C392.201 75.0869 392.84 75.2861 393.49 75.2861C394.14 75.2861 394.791 75.0869 395.336 74.6884L407.593 65.7862L419.851 74.6884C420.407 75.0869 421.046 75.2861 421.696 75.2861C422.347 75.2861 422.997 75.0869 423.542 74.6884C424.643 73.8915 425.104 72.4655 424.685 71.1757L419.998 56.7686L432.255 47.8664C433.356 47.0695 433.818 45.6435 433.398 44.3538C432.979 43.0536 431.773 42.1833 430.41 42.1833H415.258L410.571 27.7762C410.152 26.476 408.946 25.6057 407.583 25.6057H407.604Z" fill="white"/>
<path d="M329.55 57.6495C329.225 57.6495 328.9 57.5446 328.627 57.3454C328.071 56.9469 327.841 56.2339 328.061 55.5838L333.094 40.0862L319.913 30.5129C319.358 30.1145 319.127 29.4015 319.347 28.7514C319.557 28.1012 320.165 27.6609 320.847 27.6609H337.141L342.174 12.1632C342.384 11.5131 342.992 11.0728 343.674 11.0728C344.355 11.0728 344.963 11.5131 345.173 12.1632L350.206 27.6609H366.501C367.182 27.6609 367.79 28.1012 368 28.7514C368.21 29.4015 367.979 30.104 367.434 30.5129L354.254 40.0862L359.287 55.5838C359.496 56.2339 359.266 56.9364 358.72 57.3454C358.448 57.5446 358.123 57.6495 357.798 57.6495C357.473 57.6495 357.148 57.5446 356.875 57.3454L343.695 47.7721L330.514 57.3454C330.242 57.5446 329.917 57.6495 329.592 57.6495H329.55Z" fill="#020747"/>
<path d="M343.663 12.656L349.053 29.2441H366.49L352.387 39.499L357.777 56.0871L343.674 45.8322L329.56 56.0871L334.95 39.499L320.836 29.2441H338.274L343.663 12.656ZM343.663 9.51038C342.3 9.51038 341.094 10.3912 340.675 11.6809L335.988 26.088H320.836C319.473 26.088 318.267 26.9688 317.848 28.2585C317.428 29.5587 317.89 30.9742 318.991 31.7711L331.248 40.6734L326.561 55.0805C326.142 56.3807 326.603 57.7962 327.704 58.5931C328.26 58.9916 328.9 59.1908 329.55 59.1908C330.2 59.1908 330.85 58.9916 331.395 58.5931L343.653 49.6909L355.91 58.5931C356.466 58.9916 357.106 59.1908 357.756 59.1908C358.406 59.1908 359.056 58.9916 359.601 58.5931C360.702 57.7962 361.164 56.3702 360.744 55.0805L356.057 40.6734L368.315 31.7711C369.416 30.9742 369.877 29.5482 369.458 28.2585C369.038 26.9583 367.832 26.088 366.469 26.088H351.318L346.641 11.6809C346.222 10.3807 345.016 9.51038 343.653 9.51038H343.663Z" fill="white"/>
<path d="M293.804 48.139C293.479 48.139 293.154 48.0342 292.881 47.8349L279.701 38.2617L266.521 47.8349C266.248 48.0342 265.923 48.139 265.598 48.139C265.273 48.139 264.948 48.0342 264.675 47.8349C264.12 47.4365 263.889 46.7235 264.109 46.0734L269.142 30.5758L255.962 21.0025C255.406 20.604 255.176 19.891 255.396 19.2409C255.605 18.5908 256.214 18.1504 256.895 18.1504H273.19L278.223 2.65281C278.432 2.00271 279.041 1.56232 279.722 1.56232C280.404 1.56232 281.012 2.00271 281.222 2.65281L286.255 18.1504H302.549C303.231 18.1504 303.839 18.5908 304.049 19.2409C304.258 19.891 304.028 20.5935 303.482 21.0025L290.302 30.5758L295.335 46.0734C295.545 46.7235 295.314 47.426 294.769 47.8349C294.496 48.0342 294.171 48.139 293.846 48.139H293.804Z" fill="#020747"/>
<path d="M279.691 3.14566L285.081 19.7338H302.518L288.404 29.9886L293.794 46.5767L279.68 36.3219L265.567 46.5767L270.957 29.9886L256.843 19.7338H274.28L279.67 3.14566M279.67 0C278.307 0 277.101 0.880784 276.682 2.1705L271.995 16.5776H256.843C255.48 16.5776 254.274 17.4584 253.855 18.7481C253.435 20.0378 253.897 21.4639 254.998 22.2608L267.255 31.163L262.568 45.5701C262.149 46.8703 262.61 48.2859 263.711 49.0827C264.267 49.4812 264.906 49.6804 265.556 49.6804C266.207 49.6804 266.857 49.4812 267.402 49.0827L279.66 40.1805L291.917 49.0827C292.473 49.4812 293.112 49.6804 293.763 49.6804C294.413 49.6804 295.063 49.4812 295.608 49.0827C296.709 48.2859 297.17 46.8598 296.751 45.5701L292.064 31.163L304.321 22.2608C305.422 21.4639 305.884 20.0378 305.464 18.7481C305.045 17.4584 303.839 16.5776 302.476 16.5776H287.324L282.637 2.1705C282.218 0.870299 281.012 0 279.649 0L279.67 0Z" fill="white"/>
</g>
<defs>
<clipPath id="clip0_8_209">
<rect width="561.5" height="375.466" fill="white"/>
</clipPath>
</defs>
</svg>
